HIERARCHY
ROOT Hips
{
	OFFSET 0.000000 71.427986 0.000000
	CHANNELS 6 Xposition Yposition Zposition Xrotation Yrotation Zrotation
	JOINT Pelvis
	{
		OFFSET 0.000000 0.000000 0.000000
		CHANNELS 3 Xrotation Yrotation Zrotation
		JOINT LeftUpLeg
		{
			OFFSET 6.797100 -2.508499 -1.318700
			CHANNELS 3 Xrotation Yrotation Zrotation
			JOINT LeftLeg
			{
				OFFSET 0.069008 -29.241863 0.690200
				CHANNELS 3 Xrotation Yrotation Zrotation
				JOINT LeftFoot
				{
					OFFSET -0.069008 -29.568123 -0.266800
					CHANNELS 3 Xrotation Yrotation Zrotation
					JOINT LeftToeBase
					{
						OFFSET 3.145500 -8.631000 16.059900
						CHANNELS 3 Xrotation Yrotation Zrotation
						End Site
						{
							OFFSET 0.000000 18.501587 0.000000
						}
					}
				}
			}
			JOINT Left_ShortSleeve
			{
				OFFSET 0.265923 -10.480953 1.153800
				CHANNELS 3 Xrotation Yrotation Zrotation
				End Site
				{
					OFFSET 1.725763 19.823879 0.000000
				}
			}
		}
		JOINT RightUpLeg
		{
			OFFSET -6.797100 -2.508499 -1.318700
			CHANNELS 3 Xrotation Yrotation Zrotation
			JOINT RightLeg
			{
				OFFSET -0.082453 -29.241932 0.688000
				CHANNELS 3 Xrotation Yrotation Zrotation
				JOINT RightFoot
				{
					OFFSET 0.082453 -29.568058 -0.264600
					CHANNELS 3 Xrotation Yrotation Zrotation
					JOINT RightToeBase
					{
						OFFSET -3.115300 -8.682800 16.113400
						CHANNELS 3 Xrotation Yrotation Zrotation
						End Site
						{
							OFFSET 0.000000 18.567114 0.000000
						}
					}
				}
			}
			JOINT Right_ShortSleeve
			{
				OFFSET -0.265923 -10.480953 1.153800
				CHANNELS 3 Xrotation Yrotation Zrotation
				End Site
				{
					OFFSET -1.725766 19.823910 0.000000
				}
			}
		}
	}
	JOINT Spine
	{
		OFFSET 0.000000 13.368103 0.470500
		CHANNELS 3 Xrotation Yrotation Zrotation
		JOINT Spine1
		{
			OFFSET 0.147000 13.837402 0.538800
			CHANNELS 3 Xrotation Yrotation Zrotation
			JOINT Spine2
			{
				OFFSET 0.168000 16.242897 -1.435500
				CHANNELS 3 Xrotation Yrotation Zrotation
				JOINT Neck
				{
					OFFSET 0.217200 18.631500 -1.679100
					CHANNELS 3 Xrotation Yrotation Zrotation
					JOINT Head
					{
						OFFSET 0.000000 6.599396 1.385900
						CHANNELS 3 Xrotation Yrotation Zrotation
						JOINT Hat
						{
							OFFSET -0.532200 27.220596 -10.096100
							CHANNELS 3 Xrotation Yrotation Zrotation
							End Site
							{
								OFFSET 0.000000 22.029861 0.000000
							}
						}
						JOINT HairD
						{
							OFFSET -10.777400 17.437393 -1.325900
							CHANNELS 3 Xrotation Yrotation Zrotation
							JOINT HairD1
							{
								OFFSET -3.290299 -11.051193 1.062200
								CHANNELS 3 Xrotation Yrotation Zrotation
								End Site
								{
									OFFSET 0.000000 11.579437 0.000000
								}
							}
						}
						JOINT HairB
						{
							OFFSET -10.777400 17.437393 1.467900
							CHANNELS 3 Xrotation Yrotation Zrotation
							JOINT HairB1
							{
								OFFSET -1.561200 -12.956299 3.590200
								CHANNELS 3 Xrotation Yrotation Zrotation
								End Site
								{
									OFFSET 0.000000 13.534866 0.000000
								}
							}
						}
						JOINT HairA
						{
							OFFSET 9.713100 17.437393 1.467900
							CHANNELS 3 Xrotation Yrotation Zrotation
							JOINT HairA1
							{
								OFFSET 1.561200 -12.956299 3.590200
								CHANNELS 3 Xrotation Yrotation Zrotation
								End Site
								{
									OFFSET 0.000000 13.534866 0.000000
								}
							}
						}
						JOINT HairC
						{
							OFFSET 9.713100 17.437393 -1.325900
							CHANNELS 3 Xrotation Yrotation Zrotation
							JOINT HairC1
							{
								OFFSET 3.290300 -11.051193 1.062200
								CHANNELS 3 Xrotation Yrotation Zrotation
								End Site
								{
									OFFSET 0.000000 11.579437 0.000000
								}
							}
						}
					}
				}
				JOINT LeftShoulder
				{
					OFFSET 5.101800 15.108002 -2.763700
					CHANNELS 3 Xrotation Yrotation Zrotation
					JOINT LeftArm
					{
						OFFSET 9.825497 2.506317 -1.597400
						CHANNELS 3 Xrotation Yrotation Zrotation
						JOINT LeftForeArm
						{
							OFFSET 21.966244 0.000000 0.000000
							CHANNELS 3 Xrotation Yrotation Zrotation
							JOINT LeftHand
							{
								OFFSET 33.879036 0.000000 0.000000
								CHANNELS 3 Xrotation Yrotation Zrotation
								JOINT LeftHandThumb1
								{
									OFFSET 6.715286 -2.359680 3.363841
									CHANNELS 3 Xrotation Yrotation Zrotation
									JOINT LeftHandThumb2
									{
										OFFSET 2.507072 -1.447464 1.447461
										CHANNELS 3 Xrotation Yrotation Zrotation
										JOINT LeftHandThumb3
										{
											OFFSET 2.898338 -1.673355 1.673357
											CHANNELS 3 Xrotation Yrotation Zrotation
											End Site
											{
												OFFSET -0.295959 3.727692 -0.131651
											}
										}
									}
								}
								JOINT LeftHandIndex1
								{
									OFFSET 14.190811 -0.254547 3.840278
									CHANNELS 3 Xrotation Yrotation Zrotation
									JOINT LeftHandIndex2
									{
										OFFSET 3.551727 0.000000 -0.000000
										CHANNELS 3 Xrotation Yrotation Zrotation
										JOINT LeftHandIndex3
										{
											OFFSET 2.894196 0.000000 0.000000
											CHANNELS 3 Xrotation Yrotation Zrotation
											End Site
											{
												OFFSET -1.000603 2.690872 0.366626
											}
										}
									}
								}
								JOINT LeftHandMiddle1
								{
									OFFSET 13.776489 0.000000 0.000000
									CHANNELS 3 Xrotation Yrotation Zrotation
									JOINT LeftHandMiddle2
									{
										OFFSET 3.438232 0.000000 0.000000
										CHANNELS 3 Xrotation Yrotation Zrotation
										JOINT LeftHandMiddle3
										{
											OFFSET 3.691551 0.000000 0.000000
											CHANNELS 3 Xrotation Yrotation Zrotation
											End Site
											{
												OFFSET -1.082298 3.499527 0.457670
											}
										}
									}
								}
								JOINT LeftHandRing1
								{
									OFFSET 13.966164 -0.268127 -3.067488
									CHANNELS 3 Xrotation Yrotation Zrotation
									JOINT LeftHandRing2
									{
										OFFSET 3.162567 0.000000 0.000000
										CHANNELS 3 Xrotation Yrotation Zrotation
										JOINT LeftHandRing3
										{
											OFFSET 3.324348 0.000000 0.000000
											CHANNELS 3 Xrotation Yrotation Zrotation
											End Site
											{
												OFFSET -0.861900 3.184998 0.405154
											}
										}
									}
								}
								JOINT LeftHandPinky1
								{
									OFFSET 13.131393 -0.168503 -5.746925
									CHANNELS 3 Xrotation Yrotation Zrotation
									JOINT LeftHandPinky2
									{
										OFFSET 2.849182 0.000000 0.000000
										CHANNELS 3 Xrotation Yrotation Zrotation
										JOINT LeftHandPinky3
										{
											OFFSET 2.805038 0.000000 0.000000
											CHANNELS 3 Xrotation Yrotation Zrotation
											End Site
											{
												OFFSET -0.882500 2.642609 0.325652
											}
										}
									}
								}
							}
							JOINT Left_Sleeve
							{
								OFFSET 6.592125 -0.646545 0.805568
								CHANNELS 3 Xrotation Yrotation Zrotation
								End Site
								{
									OFFSET -0.000179 20.275787 -0.000000
								}
							}
						}
					}
				}
				JOINT RightShoulder
				{
					OFFSET -5.731700 15.108002 -2.763700
					CHANNELS 3 Xrotation Yrotation Zrotation
					JOINT RightArm
					{
						OFFSET -9.825497 2.506317 -1.597400
						CHANNELS 3 Xrotation Yrotation Zrotation
						JOINT RightForeArm
						{
							OFFSET -21.966242 0.000000 0.000000
							CHANNELS 3 Xrotation Yrotation Zrotation
							JOINT RightHand
							{
								OFFSET -33.879032 0.000000 0.000000
								CHANNELS 3 Xrotation Yrotation Zrotation
								JOINT RightHandThumb1
								{
									OFFSET -6.715286 -2.359680 3.363841
									CHANNELS 3 Xrotation Yrotation Zrotation
									JOINT RightHandThumb2
									{
										OFFSET -2.507072 -1.447464 1.447461
										CHANNELS 3 Xrotation Yrotation Zrotation
										JOINT RightHandThumb3
										{
											OFFSET -2.898338 -1.673355 1.673357
											CHANNELS 3 Xrotation Yrotation Zrotation
											End Site
											{
												OFFSET 0.295959 3.727692 -0.131651
											}
										}
									}
								}
								JOINT RightHandIndex1
								{
									OFFSET -14.190811 -0.254547 3.840278
									CHANNELS 3 Xrotation Yrotation Zrotation
									JOINT RightHandIndex2
									{
										OFFSET -3.551727 0.000000 -0.000000
										CHANNELS 3 Xrotation Yrotation Zrotation
										JOINT RightHandIndex3
										{
											OFFSET -2.894196 0.000000 0.000000
											CHANNELS 3 Xrotation Yrotation Zrotation
											End Site
											{
												OFFSET 1.000603 2.690872 0.366626
											}
										}
									}
								}
								JOINT RightHandMiddle1
								{
									OFFSET -13.776489 0.000000 0.000000
									CHANNELS 3 Xrotation Yrotation Zrotation
									JOINT RightHandMiddle2
									{
										OFFSET -3.438232 0.000000 0.000000
										CHANNELS 3 Xrotation Yrotation Zrotation
										JOINT RightHandMiddle3
										{
											OFFSET -3.691551 0.000000 0.000000
											CHANNELS 3 Xrotation Yrotation Zrotation
											End Site
											{
												OFFSET 1.082298 3.499527 0.457670
											}
										}
									}
								}
								JOINT RightHandRing1
								{
									OFFSET -13.966164 -0.268127 -3.067488
									CHANNELS 3 Xrotation Yrotation Zrotation
									JOINT RightHandRing2
									{
										OFFSET -3.162567 0.000000 0.000000
										CHANNELS 3 Xrotation Yrotation Zrotation
										JOINT RightHandRing3
										{
											OFFSET -3.324348 0.000000 0.000000
											CHANNELS 3 Xrotation Yrotation Zrotation
											End Site
											{
												OFFSET 0.861900 3.184998 0.405154
											}
										}
									}
								}
								JOINT RightHandPinky1
								{
									OFFSET -13.131393 -0.168503 -5.746925
									CHANNELS 3 Xrotation Yrotation Zrotation
									JOINT RightHandPinky2
									{
										OFFSET -2.849182 0.000000 0.000000
										CHANNELS 3 Xrotation Yrotation Zrotation
										JOINT RightHandPinky3
										{
											OFFSET -2.805038 0.000000 0.000000
											CHANNELS 3 Xrotation Yrotation Zrotation
											End Site
											{
												OFFSET 0.882500 2.642609 0.325652
											}
										}
									}
								}
							}
							JOINT Right_Sleeve
							{
								OFFSET -6.592125 -0.646545 0.805568
								CHANNELS 3 Xrotation Yrotation Zrotation
								End Site
								{
									OFFSET 0.000179 20.275787 -0.000000
								}
							}
						}
					}
				}
				JOINT Bind_Right_JacketString
				{
					OFFSET -3.534800 11.969597 7.200700
					CHANNELS 3 Xrotation Yrotation Zrotation
					JOINT Bind_Right_JacketString1
					{
						OFFSET -0.319900 -6.102600 2.794100
						CHANNELS 3 Xrotation Yrotation Zrotation
						End Site
						{
							OFFSET 0.000000 6.719452 0.000000
						}
					}
				}
				JOINT Bind_Left_JacketString
				{
					OFFSET 2.904800 11.969597 7.200700
					CHANNELS 3 Xrotation Yrotation Zrotation
					JOINT Bind_Left_JacketString1
					{
						OFFSET 0.364800 -5.904503 3.186800
						CHANNELS 3 Xrotation Yrotation Zrotation
						End Site
						{
							OFFSET 0.000000 6.719513 0.000000
						}
					}
				}
				JOINT HairE
				{
					OFFSET 5.915200 17.612701 -11.592200
					CHANNELS 3 Xrotation Yrotation Zrotation
					JOINT HairE1
					{
						OFFSET 0.289200 -7.171898 -1.284500
						CHANNELS 3 Xrotation Yrotation Zrotation
						End Site
						{
							OFFSET 0.000000 7.291756 0.000000
						}
					}
				}
				JOINT HairF
				{
					OFFSET -0.864800 17.612701 -11.592200
					CHANNELS 3 Xrotation Yrotation Zrotation
					JOINT HairF1
					{
						OFFSET 0.000000 -14.087097 -2.127501
						CHANNELS 3 Xrotation Yrotation Zrotation
						End Site
						{
							OFFSET 0.000000 14.246841 0.000000
						}
					}
				}
				JOINT HairG
				{
					OFFSET -8.087700 17.612701 -11.592200
					CHANNELS 3 Xrotation Yrotation Zrotation
					JOINT HairG1
					{
						OFFSET -0.293600 -6.081398 -0.910100
						CHANNELS 3 Xrotation Yrotation Zrotation
						End Site
						{
							OFFSET 0.000000 6.156120 0.000000
						}
					}
				}
			}
		}
	}
	JOINT Pouch
	{
		OFFSET 0.000000 4.394501 10.847300
		CHANNELS 3 Xrotation Yrotation Zrotation
		End Site
		{
			OFFSET 0.000000 21.880577 0.000000
		}
	}
	JOINT Bag
	{
		OFFSET -13.229000 4.813004 -0.593300
		CHANNELS 3 Xrotation Yrotation Zrotation
		End Site
		{
			OFFSET 0.000000 21.880577 0.000000
		}
	}
	JOINT OccupyGuyFacialAnim_Joint
	{
		OFFSET 1.000000 -70.206398 -1.655000
		CHANNELS 3 Xrotation Yrotation Zrotation
		End Site
		{
			OFFSET 0.000000 21.880577 0.000000
		}
	}
}
MOTION
Frames: 4
Frame Time: 0.033333
-3.490301 228.840393 46.424255 24.054116 11.013543 0.251012 -0.000000 0.000000 -0.000000 -14.006683 17.975608 14.815428 38.312539 3.816420 -0.069804 53.248192 -9.854180 -14.581667 0.000001 0.000001 0.000001 -0.000000 -0.000001 -0.000001 -28.696664 -3.994209 -1.095092 23.440786 -4.263606 -4.673899 5.868600 0.695618 9.526271 0.000001 0.000000 0.000000 -0.000000 0.000000 -0.000000 0.978685 -2.629126 1.600610 0.881599 -2.072494 -3.310640 0.900740 -2.023757 -3.337538 3.877723 0.258165 1.578610 2.028070 -2.455845 -5.940279 0.000001 -0.000000 0.000001 0.000001 -0.000000 0.000001 0.000001 -0.000000 0.000001 0.000001 -0.000000 0.000001 0.000001 -0.000000 -0.000000 0.000001 -0.000000 0.000001 0.000001 -0.000000 -0.000000 0.000001 -0.000000 0.000001 0.000001 -0.000000 0.000001 7.832176 7.089532 25.220421 -127.833260 -74.704183 -53.167647 -0.000003 -14.957150 -0.000006 -96.381639 0.960153 9.458420 12.750972 9.862362 -4.668084 7.790850 23.964344 2.287749 0.000000 0.000001 -0.000001 7.249173 11.498316 -47.315531 3.817175 5.487333 -69.626183 0.000001 0.000001 0.000000 9.245513 12.308949 -52.159535 3.109689 5.171083 -62.020133 0.000001 0.000000 0.000001 4.953379 8.807513 -55.007386 3.631279 5.415002 -67.669519 -0.000001 0.000002 0.000001 6.590552 12.035128 -59.112145 2.065725 4.464869 -49.638758 -0.000001 -0.000001 -0.000001 0.000001 0.000000 -0.000002 4.644651 17.458305 -28.422686 -121.817517 43.783329 40.594782 0.000001 16.244280 0.000006 -46.569230 -14.916906 -7.326022 6.181781 3.655276 17.187348 9.405055 -40.716465 -3.770629 -0.000002 -0.000001 0.000001 3.390231 -6.925600 58.618869 5.204899 -4.624896 96.761712 -0.000001 0.000001 0.000002 3.771920 -6.839265 76.677158 6.351091 -4.338820 111.350300 0.000001 -0.000001 -0.000001 1.561489 -6.860126 88.606302 5.091128 -4.636970 95.352350 -0.000001 -0.000001 -0.000000 3.001132 -18.410941 100.666381 3.364415 -4.474535 73.867287 -0.000001 0.000002 0.000003 0.000002 -0.000001 -0.000001 -0.000002 -0.000000 0.000000 -0.000002 -0.000000 0.000000 -0.000002 -0.000000 0.000000 -0.000002 -0.000000 0.000000 -0.000002 -0.000000 0.000000 -0.000002 -0.000000 -0.000000 -0.000002 -0.000000 0.000000 -0.000002 -0.000000 0.000000 -0.000002 -0.000000 0.000000 -0.000002 -0.000000 -0.000000 -0.000000 0.000000 -0.000000 -0.000000 0.000000 -0.000000 -0.000000 0.000000 -0.000000 
-3.429099 229.309265 51.221310 28.571112 7.070064 -0.479257 0.000001 -0.000001 -0.000000 -16.595604 16.738116 13.812955 41.474971 6.225002 0.098706 54.906993 -8.458879 -12.215295 -0.000001 0.000001 0.000000 0.000001 0.000001 0.000000 -33.204247 -4.349325 -1.159572 28.145422 -0.669634 -3.419235 10.600285 1.544974 13.947257 0.000004 0.000000 -0.000000 -0.000001 0.000000 -0.000001 0.699466 -2.413348 0.920671 0.438287 -1.504461 -3.189735 0.453199 -1.462052 -3.209615 3.782372 0.421539 1.881004 1.899059 -1.319725 -6.192707 0.000000 -0.000000 -0.000000 0.000000 -0.000000 -0.000000 0.000000 -0.000000 -0.000000 0.000000 -0.000000 -0.000000 0.000000 -0.000000 -0.000001 0.000000 -0.000000 -0.000000 0.000000 -0.000000 -0.000001 0.000000 -0.000000 -0.000000 0.000000 -0.000000 -0.000000 7.847736 7.175711 25.206263 -130.545624 -74.717243 -55.547497 0.000001 -15.036994 0.000011 -102.713601 -0.056938 11.531683 17.025346 12.362636 -9.107465 8.312909 27.977266 2.576632 -0.000002 -0.000000 -0.000000 10.763553 10.586132 -68.182172 5.974254 5.849740 -91.208577 0.000002 -0.000001 0.000003 10.972357 10.494931 -69.409871 4.934034 5.778976 -80.967405 0.000001 -0.000003 -0.000001 5.568217 8.516001 -67.943600 5.460979 5.838082 -86.170643 -0.000003 0.000004 -0.000000 6.414266 13.673773 -68.412124 3.204262 5.220031 -63.064325 -0.000000 -0.000000 0.000005 -0.000001 -0.000000 -0.000003 4.860162 18.764546 -30.392023 -120.816648 40.482057 38.157637 -0.000008 20.575364 0.000026 -48.212239 -17.424204 -9.118493 6.181790 3.655266 17.187333 9.405036 -40.716475 -3.770637 -0.000000 0.000000 0.000001 3.390243 -6.925590 58.618862 5.204893 -4.624883 96.761726 -0.000002 0.000001 0.000004 3.771928 -6.839250 76.677152 6.351065 -4.338808 111.350286 0.000000 0.000001 0.000001 1.561496 -6.860108 88.606309 5.091129 -4.636973 95.352364 0.000001 0.000003 -0.000002 3.001131 -18.410951 100.666381 3.364460 -4.474537 73.867314 0.000000 0.000003 0.000003 -0.000003 -0.000002 0.000002 -0.000001 -0.000000 -0.000000 -0.000001 -0.000000 0.000001 -0.000001 -0.000000 -0.000000 -0.000001 -0.000000 -0.000000 -0.000001 -0.000000 -0.000000 -0.000001 -0.000000 0.000000 -0.000001 -0.000000 -0.000000 -0.000001 -0.000000 -0.000000 -0.000001 -0.000000 -0.000000 -0.000001 -0.000000 0.000000 0.000001 -0.000001 -0.000000 0.000001 -0.000001 -0.000000 0.000001 -0.000001 -0.000000 
-3.434568 229.604004 56.089115 33.018763 3.249822 -0.999139 0.000002 -0.000000 0.000000 -18.463951 16.050852 12.962638 43.332441 7.007561 0.267331 56.204455 -6.296250 -9.843722 -0.000000 -0.000000 -0.000003 -0.000001 -0.000002 0.000000 -37.540093 -4.732889 -1.272547 30.747657 3.502658 -2.144539 19.729618 3.380620 18.346086 -0.000004 0.000000 0.000001 0.000000 -0.000000 -0.000000 0.401436 -2.051788 0.406135 -0.033353 -0.755666 -2.716594 -0.024711 -0.724067 -2.727059 3.683820 0.585283 2.142905 1.576204 -0.444301 -6.352193 0.000001 -0.000000 -0.000000 0.000001 -0.000000 -0.000000 0.000001 -0.000000 -0.000000 0.000001 -0.000000 -0.000000 -0.000002 -0.000000 -0.000001 0.000001 -0.000000 -0.000000 -0.000002 -0.000000 -0.000001 0.000001 -0.000000 -0.000000 0.000001 -0.000000 -0.000000 7.833318 7.186670 25.256429 -127.338659 -73.482857 -52.070709 -0.000005 -17.340010 0.000001 -106.002378 -0.910326 12.921257 18.957012 13.390119 -11.253749 8.551025 29.816901 2.698660 -0.000000 0.000001 -0.000000 11.781848 9.608533 -77.808135 6.991793 5.739126 -101.261974 0.000001 0.000002 -0.000003 11.206725 9.543286 -77.290680 5.838791 5.851043 -89.879463 -0.000000 0.000001 -0.000003 5.619727 8.350964 -73.864384 6.357484 5.829188 -94.973849 -0.000002 0.000000 -0.000001 6.449522 14.443277 -72.665788 3.783828 5.474916 -69.277304 0.000001 -0.000002 -0.000004 0.000001 -0.000001 -0.000001 4.895619 19.419981 -32.690375 -120.036108 37.529325 36.764501 0.000013 23.378460 -0.000016 -50.050400 -17.985118 -10.887063 6.181789 3.655288 17.187341 9.405049 -40.716472 -3.770636 0.000000 -0.000001 0.000000 3.390244 -6.925592 58.618876 5.204893 -4.624889 96.761712 0.000001 -0.000001 0.000000 3.771927 -6.839260 76.677165 6.351076 -4.338804 111.350300 -0.000000 -0.000000 -0.000001 1.561497 -6.860122 88.606316 5.091119 -4.636947 95.352323 -0.000001 -0.000002 -0.000000 3.001135 -18.410944 100.666381 3.364452 -4.474553 73.867314 0.000001 -0.000002 0.000000 0.000002 -0.000003 0.000001 0.000003 0.000000 -0.000000 0.000003 0.000000 0.000000 0.000003 0.000000 0.000000 0.000003 0.000000 0.000000 0.000003 0.000000 -0.000000 0.000003 0.000000 -0.000000 0.000003 0.000000 0.000000 0.000003 0.000000 0.000000 0.000003 0.000000 -0.000000 0.000003 0.000000 -0.000000 0.000002 -0.000000 0.000000 0.000002 -0.000000 0.000000 0.000002 -0.000000 0.000000 
-3.458868 229.802856 60.974152 37.467378 -0.376157 -1.290877 0.000001 -0.000000 0.000000 -20.828592 15.932623 12.714757 46.474905 7.670187 0.377303 56.591283 -4.018917 -7.736645 -0.000001 -0.000001 0.000000 -0.000001 0.000000 0.000000 -40.973769 -5.524805 -0.943711 30.057292 7.148135 -1.018353 32.220950 5.559126 20.866245 0.000003 0.000002 0.000001 -0.000000 0.000000 -0.000000 0.020221 -1.614297 -0.040288 -0.678432 -0.003186 -2.049788 -0.676035 0.016522 -2.051209 3.603081 0.755038 2.324251 1.136436 0.181811 -6.432110 -0.000003 0.000000 -0.000000 -0.000003 0.000000 -0.000000 -0.000003 0.000000 0.000000 -0.000003 0.000000 -0.000000 -0.000003 -0.000000 0.000000 -0.000003 0.000000 -0.000000 -0.000003 -0.000000 0.000000 -0.000003 0.000000 -0.000000 -0.000003 0.000000 -0.000000 7.834189 7.163762 25.241355 -121.010407 -71.735749 -45.542445 0.000007 -20.515341 0.000003 -105.901386 -0.638373 13.576597 18.913327 13.364812 -11.205185 8.545737 29.775820 2.696001 0.000000 -0.000000 -0.000000 11.769335 9.628731 -77.630503 6.973455 5.742741 -101.078337 -0.000000 0.000001 -0.000000 11.205525 9.561387 -77.137793 5.821541 5.850990 -89.710348 -0.000001 -0.000000 -0.000001 5.620122 8.354226 -73.738743 6.340374 5.830655 -94.805321 -0.000002 0.000004 -0.000002 6.441957 14.422810 -72.561888 3.771443 5.470214 -69.147169 -0.000000 -0.000001 0.000001 -0.000001 0.000001 0.000001 4.803163 19.694091 -35.121806 -119.600082 35.284105 36.419627 -0.000001 24.464879 0.000004 -51.692279 -17.020387 -12.537368 6.181804 3.655282 17.187341 9.405073 -40.716448 -3.770613 0.000003 -0.000001 -0.000000 3.390248 -6.925584 58.618869 5.204894 -4.624891 96.761746 -0.000001 0.000000 0.000000 3.771926 -6.839252 76.677165 6.351077 -4.338820 111.350279 -0.000001 0.000001 -0.000001 1.561501 -6.860109 88.606296 5.091113 -4.636968 95.352330 -0.000001 -0.000003 -0.000001 3.001139 -18.410927 100.666374 3.364428 -4.474540 73.867328 -0.000001 0.000000 0.000001 0.000002 -0.000000 -0.000002 -0.000002 0.000000 -0.000000 -0.000002 0.000000 0.000000 -0.000002 0.000000 0.000000 -0.000002 0.000000 0.000000 -0.000002 0.000000 -0.000000 -0.000002 0.000000 -0.000000 -0.000002 0.000000 0.000000 -0.000002 0.000000 0.000000 -0.000002 0.000000 -0.000000 -0.000002 0.000000 -0.000000 0.000001 -0.000000 0.000000 0.000001 -0.000000 0.000000 0.000001 -0.000000 0.000000 
